<?xml version="1.0" encoding="utf-8"?>
<?xml-stylesheet type="text/xsl" href="rss1.xsl"?>
<rss version="2.0" xmlns:atom="http://www.w3.org/2005/Atom" xmlns:content="http://purl.org/rss/1.0/modules/content/" xmlns:dc="http://purl.org/dc/elements/1.1/" xmlns:media="http://search.yahoo.com/mrss/">
<channel>
 <title>Getty</title>
 <link>http://www.gettyimg.com/</link>
 <atom:link href="http://www.gettyimg.com/" rel="self" type="application/rss+xml" />

 
                <item>
                <title><![CDATA[【PRORES HD】[Prores]Taylor Swift, The Civil Wars - Safe &amp; Sound 1080p]]></title>
                <link><![CDATA[https://sharemania.us/threads/prores-taylor-swift-the-civil-wars-safe-sound-1080p.220812/]]></link>
                <description><![CDATA[<article>
<blockquote class="messageText SelectQuoteContainer ugc baseHtml">
<img src="https://proresmusicvideo.com/wp-content/uploads/2022/02/Taylor-Swift-The-Civil-Wars-Safe-Sound-Master-ProRes-1080p-2012.mov.png" class="bbCodeImage LbImage" alt="[​IMG]" data-url="https://proresmusicvideo.com/wp-content/uploads/2022/02/Taylor-Swift-The-Civil-Wars-Safe-Sound-Master-ProRes-1080p-2012.mov.png" style=""> <br>
<div class="ToggleTriggerAnchor bbCodeSpoilerContainer">
<button type="button" class="button bbCodeSpoilerButton ToggleTrigger Tooltip JsOnly" data-target="> .SpoilerTarget"><span>Spoiler: <span class="SpoilerTitle">mediainfo</span></span></button>
<div class="SpoilerTarget bbCodeSpoilerText">General<br>
Complete name : J:\Taylor Swift - Safe &amp; Sound (ProRes).mov<br>
Format : MPEG-4<br>
Format profile : QuickTime<br>
Codec ID : qt 2005.03 (qt )<br>
File size : 4.62 GiB<br>
Duration : 4 min 0 s<br>
Overall bit rate mode : Variable<br>
Overall bit rate : 165 Mb/s<br>
Encoded date : UTC 2018-04-24 11:45:50<br>
Tagged date : UTC 2018-04-24 11:49:24<br>
Writing library : Apple QuickTime<br>
<br>
Video<br>
ID : 1<br>
Format : ProRes<br>
Format version : Version 0<br>
Format profile : 422 HQ<br>
Codec ID : apch<br>
Duration : 4 min 0 s<br>
Bit rate mode : Variable<br>
Bit rate : 162 Mb/s<br>
Width : 1 920 pixels<br>
Height : 1 080 pixels<br>
Display aspect ratio : 16:9<br>
Frame rate mode : Constant<br>
Frame rate : 23.976 (24000/1001) FPS<br>
Color space : YUV<br>
Chroma subsampling : 4:2:2<br>
Scan type : Progressive<br>
Bits/(Pixel*Frame) : 3.264<br>
Stream size : 4.55 GiB (99%)<br>
Writing library : arh0<br>
Language : English<br>
Encoded date : UTC 2018-04-24 11:45:50<br>
Tagged date : UTC 2018-04-24 11:49:24<br>
Color primaries : BT.709<br>
Transfer characteristics : BT.709<br>
Matrix coefficients : BT.709<br>
<br>
Audio<br>
ID : 2<br>
Format : PCM<br>
Format settings : Little / Signed<br>
Codec ID : in24<br>
Duration : 4 min 0 s<br>
Bit rate mode : Constant<br>
Bit rate : 2 304 kb/s<br>
Channel(s) : 2 channels<br>
Channel layout : L R<br>
Sampling rate : 48.0 kHz<br>
Bit depth : 24 bits<br>
Stream size : 66.2 MiB (1%)<br>
Language : English<br>
Encoded date : UTC 2018-04-24 11:45:50<br>
Tagged date : UTC 2018-04-24 11:49:26</div>
</div><br>
<div class="bbCodeBlock bbCodeVfcHH HiddenContent">
<div class="attribution type">Hidden Content:</div>
<blockquote>You must reply before you can see the hidden data contained here.</blockquote>
</div>
<div class="messageTextEndMarker">&nbsp;</div>
</blockquote>
</article>]]></description>
                <author><![CDATA[huyt6gg]]></author>
                </item>

                </channel></rss>